inDegrees=no
num_controls=7
num_derivatives=13
num_iterations=78
num_multipliers=7
num_parameters=0
num_slacks=7
num_states=26
objective=0.453041
objective_accelerations=0.048168
objective_balance=0.001020
objective_effort=0.037520
objective_height=0.360700
objective_ligament=0.005632
solver_duration=887.233137
status=Solve_Succeeded
success=true
DataType=double
version=3
OpenSimVersion=4.5
endheader
time	/jointset/ground_pelvis/pelvis_tilt/value	/jointset/ground_pelvis/pelvis_tx/value	/jointset/ground_pelvis/pelvis_ty/value	/jointset/hip_r/hip_flexion_r/value	/jointset/hip_r/hip_adduction_r/value	/jointset/hip_r/hip_rotation_r/value	/jointset/back/lumbar_extension/value	/jointset/patellofemoral_r/patellar_flexion_r/value	/jointset/knee_r/knee_flexion_r/value	/jointset/knee_r/knee_adduction_r/value	/jointset/knee_r/knee_rotation_r/value	/jointset/ankle_r/ankle_angle_r/value	/jointset/subtalar_r/subtalar_angle_r/value	/jointset/ground_pelvis/pelvis_tilt/speed	/jointset/ground_pelvis/pelvis_tx/speed	/jointset/ground_pelvis/pelvis_ty/speed	/jointset/hip_r/hip_flexion_r/speed	/jointset/hip_r/hip_adduction_r/speed	/jointset/hip_r/hip_rotation_r/speed	/jointset/back/lumbar_extension/speed	/jointset/patellofemoral_r/patellar_flexion_r/speed	/jointset/knee_r/knee_flexion_r/speed	/jointset/knee_r/knee_adduction_r/speed	/jointset/knee_r/knee_rotation_r/speed	/jointset/ankle_r/ankle_angle_r/speed	/jointset/subtalar_r/subtalar_angle_r/speed	/forceset/tau_hip_flexion_r	/forceset/tau_hip_adduction_r	/forceset/tau_hip_rotation_r	/forceset/tau_knee_flexion_r	/forceset/tau_ankle_angle_r	/forceset/tau_subtalar_angle_r	/forceset/tau_lumbar_extension	lambda_cid13_p0	lambda_cid14_p0	lambda_cid14_p1	lambda_cid14_p2	lambda_cid14_p3	lambda_cid14_p4	lambda_cid14_p5	/jointset/ground_pelvis/pelvis_tilt/accel	/jointset/ground_pelvis/pelvis_tx/accel	/jointset/ground_pelvis/pelvis_ty/accel	/jointset/hip_r/hip_flexion_r/accel	/jointset/hip_r/hip_adduction_r/accel	/jointset/hip_r/hip_rotation_r/accel	/jointset/back/lumbar_extension/accel	/jointset/patellofemoral_r/patellar_flexion_r/accel	/jointset/knee_r/knee_flexion_r/accel	/jointset/knee_r/knee_adduction_r/accel	/jointset/knee_r/knee_rotation_r/accel	/jointset/ankle_r/ankle_angle_r/accel	/jointset/subtalar_r/subtalar_angle_r/accel	gamma_cid13_p0	gamma_cid14_p0	gamma_cid14_p1	gamma_cid14_p2	gamma_cid14_p3	gamma_cid14_p4	gamma_cid14_p5
1.5	-0.07427521465100274	0.03149522790559946	0.8171700546193507	0.8046686662291063	-0.2204944069713652	-0.1359294709191285	-0.6261538946447828	0.9412690268573289	0.9412690268573285	-0.05972653352229027	0.174528244913371	0.3050489357268371	0.1468565010585766	0.4502572115078656	0.2198634408625247	0.5092808816994645	-1.996557345071126	0.02892115837517766	-0.1912256628857742	0.7987600843295873	-1.967460774426298	-1.967460774426298	0.4399828655709669	-0.0001390301387934467	-0.5269928706880327	-0.1703599952251657	-0.1534770182385307	0.009502751995558049	0.01878361208510948	-0.3114130496536368	0.02147177621195194	-0.005269792193634499	0.2091357987275566	-9.242982313220686	-35.59589318709599	-8.441718459683459	1.676925865417251	-3.063661320132952	-629.9061309263768	59.25964934072125	0.141225369884346	0.5630890737746024	-0.5178428872641848	-0.9609763368203074	-0.2031664556558586	-0.5631078019683211	1.776296610730773	-1.308464335835	-1.308464335835007	0.4567621611796626	-0.01473475822422342	-0.6509981399993934	-0.4068264112215903	1.84907929049958e-07	2.105163169311039e-07	-5.537767359361396e-07	2.107240678119964e-06	-5.545794361495629e-08	3.219207047802632e-07	-4.469448120142379e-07
1.51	-0.06976593576013947	0.03372175401171339	0.8222359421329613	0.7846571487545312	-0.2202161759567323	-0.1378692415084034	-0.6180789899182737	0.9215315896332318	0.9215315896332352	-0.05530224952375527	0.1745268448967699	0.2997470054523897	0.1451316599549453	0.4515307994405648	0.2254120524462922	0.5037887758103787	-2.005478383006676	0.02671379778322812	-0.1967449266464371	0.8161033643664755	-1.979753922915169	-1.97975392291517	0.4448320710210396	-0.000136282222850958	-0.5333102012122017	-0.1745744344734823	-0.1464190136336837	0.007833120687625671	0.01856257424381726	-0.3072840820940769	0.02291296102736269	-0.005768165829593777	0.2025564601233844	-10.27856563567673	-34.83495766200867	-8.338708659704055	1.447796399830833	-3.11219210197806	-625.0589121181134	59.1546254674916	0.1102734331706182	0.5462853623651979	-0.5810194083922315	-0.8174849535784994	-0.2310535106091114	-0.5485849500793439	1.695719209263673	-1.148852993476255	-1.148852993476551	0.4926522763027235	0.008724296314988281	-0.6096276857780378	-0.4236154824894534	1.454006263451323e-07	1.562422672739286e-07	-5.61022660043565e-07	1.592614936261178e-06	-2.760487791272893e-08	2.804365075531528e-07	-4.673633382059796e-07
1.52	-0.06524595140430373	0.03600287386600212	0.8272436835939487	0.7645644574142726	-0.2199603250779489	-0.1398646545926765	-0.6098341772895752	0.9016793983466361	0.9016793983466366	-0.05083074296284338	0.1745256613052917	0.2943843964372704	0.1433657018986602	0.4523983045015788	0.2307821904974835	0.497651671174846	-2.012792118208484	0.02444513120549332	-0.2023541618856615	0.8327416647672067	-1.990411586926564	-1.990411586926566	0.4494273780463776	-9.57451144476887e-05	-0.5391286188224623	-0.1785833857559087	-0.1393610090288285	0.006163489379694316	0.01834153640250921	-0.303155114534515	0.02435414584277576	-0.006266539465550478	0.1959771215192209	-11.31666909868635	-34.07461521514229	-8.234389877641615	1.216844063271411	-3.17460835217548	-620.2153090712467	59.1054784887983	0.06000879554727343	0.5273943672593681	-0.6468426365535815	-0.63951579007198	-0.2154276528129248	-0.581102097680617	1.6353006834994	-0.9813674403399102	-0.9813674403399101	0.4059824762327169	-0.007176919732054515	-0.5512155572176786	-0.3657288180435835	1.263408131949423e-07	1.198967740691542e-07	-6.603956966649339e-07	1.252474528862655e-06	5.519888285962975e-10	2.588342029989936e-07	-5.393705344498475e-07
1.53	-0.06071936982690791	0.038336787055031	0.8321869053528853	0.7444066609287742	-0.2197274081082895	-0.141916983722559	-0.6014265795724809	0.8817288102992715	0.881728810299272	-0.04631489113452548	0.1745252437658552	0.2889662045908298	0.1415608176630614	0.4528442639557934	0.2359686409199251	0.4908922192208479	-2.018494963410111	0.02212953198019687	-0.2080975049186816	0.8486533854729351	-1.999422497492306	-1.99942249749231	0.4537211808343226	-1.14221316311537e-06	-0.5444167187199846	-0.1823549748933762	-0.1321723926522455	0.004164705693842691	0.0181952397312219	-0.2995445239740563	0.02628786220015413	-0.006813610792399455	0.189335968948699	-12.35448615925276	-33.17967726622339	-8.137489085819057	0.9983090465108332	-3.345747354046927	-615.6732669316513	59.15787675158638	0.02583561292682876	0.5095082771694298	-0.7055140634373949	-0.4948248180165861	-0.2408563290968635	-0.5686149311170149	1.550433787274956	-0.8184501933065953	-0.818450193306793	0.4376867039651645	0.01594298954618289	-0.5036156629386649	-0.3771321511266332	1.290064576965526e-07	1.026003720950554e-07	-8.576537903323671e-07	1.097724789328161e-06	2.903164417396299e-08	2.583564094098448e-07	-6.661906926240986e-07
1.54	-0.05619053943645361	0.04072161232777054	0.8370595290745589	0.7242000048047003	-0.2195178931852261	-0.1440262791877717	-0.5928635994436952	0.861696613680526	0.8616966136805267	-0.04175677977355203	0.1745254050743283	0.2834979300540304	0.1397193658981822	0.4528480671127399	0.2409646072396145	0.4835320637222761	-2.022564045924087	0.01976472188654681	-0.2137474289518733	0.8638181471052887	-2.006733301202655	-2.006733301202659	0.4578792845778586	2.002446762021952e-05	-0.549145156894271	-0.1858968916119755	-0.1249837762756546	0.002165922007988916	0.01804894305995904	-0.2959339334135917	0.02822157855753374	-0.007360682119251626	0.1826948163781854	-13.38857146904466	-32.28595170596304	-8.040353076255284	0.7792249082850379	-3.524945220248122	-611.1396421481353	59.26005137934836	-0.02842246390632705	0.4892975467089142	-0.7669833454682728	-0.3127632525416276	-0.2252698264836625	-0.5624182977149396	1.485908868824411	-0.641346069261347	-0.6413460692613485	0.3788426673509046	-0.0218641638322917	-0.4392832125705079	-0.3197943342699542	1.29761145085466e-07	8.632359987852901e-08	-1.020048203018324e-06	9.462257827091103e-07	5.377400919841177e-08	2.556354945893948e-07	-7.648513778784708e-07
1.55	-0.05166392599950847	0.04315534709011368	0.8418556218738247	0.7039609439852945	-0.219332143974186	-0.1461923292272943	-0.584152809864224	0.8415997633994654	0.8415997633994673	-0.03715848404997419	0.1745257543330737	0.2779851617296984	0.1378438366414622	0.4523991329282133	0.2457404037570657	0.475593896087486	-2.024964930027691	0.01738184056604621	-0.2194673218850299	0.8782005089888831	-2.012349204888	-2.012349204888005	0.4617368769217078	5.129042982223064e-05	-0.5533172157490051	-0.1891656952873506	-0.1178973137500786	0.0002389624830240132	0.01789205213434453	-0.2923111039564505	0.02986300796795482	-0.008024482315537158	0.1761213575499622	-14.41448291740365	-31.52077641062114	-8.023157473778696	0.5805808652255793	-3.54168459832018	-606.9176320391898	59.2521670797417	-0.06444762046842877	0.4654465962540431	-0.8210740024565112	-0.1612656810313381	-0.2452744169702816	-0.5772970598377782	1.393510878099375	-0.4786055020057332	-0.4786055020059397	0.3826128019396863	0.01595098066578184	-0.3924299718860813	-0.3240391161091949	1.283140775401854e-07	7.122161846964032e-08	-1.142273591964757e-06	7.984721857535058e-07	7.421036580962924e-08	2.503301140024457e-07	-8.310674530295058e-07
1.56	-0.04714406564935572	0.04563558499602918	0.8465695648907481	0.683706371386502	-0.2191703190027798	-0.1484156826498921	-0.5753023744599215	0.8214553754847849	0.8214553754847871	-0.03252293334615276	0.174526482052323	0.272433420266827	0.1359368962016007	0.4514974497539863	0.2502652359540864	0.4671021072538115	-2.025666401801767	0.01497987396006622	-0.2252081055670563	0.8917473120713839	-2.016240827926732	-2.016240827926738	0.465330280627068	9.571656879737224e-05	-0.5569397846021861	-0.1921791282402415	-0.1108108512244957	-0.001687997041944222	0.01773516120874898	-0.2886882744993044	0.03150443737837661	-0.008688282511827747	0.1695478987217465	-15.42907038671386	-30.75735253796885	-8.006373393009394	0.3821220422349995	-3.564745633297189	-602.7143442044629	59.28799896840453	-0.1189722618463749	0.4391046826228225	-0.8777075852451276	0.02711921336380322	-0.2290868835795536	-0.5665964474889121	1.318797108605657	-0.2964899399388827	-0.2964899399388831	0.3260049396530997	-0.01923212847766191	-0.3293852122599178	-0.2687201897731168	1.293357475709955e-07	5.659170645735791e-08	-1.293122012262338e-06	6.373535520792409e-07	9.698896021512638e-08	2.443226153734507e-07	-8.989206701855692e-07
1.57	-0.042635454861078	0.04815979496375136	0.8511959204317148	0.6634532222331051	-0.2190325238512029	-0.1506968988660826	-0.5663207394815842	0.8012807113124776	0.8012807113124807	-0.02785311615880833	0.1745279118819267	0.2668483039751219	0.1340012550782616	0.450149779220232	0.25453242390144	0.4580854871288532	-2.024679468158986	0.01257507494984952	-0.2310024641690363	0.9044339252570492	-2.018389999917192	-2.018389999917187	0.4686159565294298	0.0001735523480092485	-0.5599824980287832	-0.1949073511205053	-0.1037353399268321	-0.003787863411684933	0.01759172742929307	-0.2854293674002079	0.03342881602983125	-0.009421054641550998	0.163037988729672	-16.42994649349115	-29.93401994057149	-8.018910221430078	0.1995958885274449	-3.647986716530037	-598.9020724005333	59.35809604757586	-0.1539030285169992	0.4139032966485942	-0.9261196030638523	0.1770769261695967	-0.246863249056106	-0.5807859543598334	1.221729672680974	-0.1288569976778641	-0.1288569976761962	0.3270499743646006	0.01882339524610759	-0.2765117299429728	-0.2688190610361521	1.334433395719192e-07	4.255188119083332e-08	-1.479749221748853e-06	4.595286225066509e-07	1.226953518634731e-07	2.374374691918982e-07	-9.68820314847918e-07
1.58	-0.03814256849401312	0.05072535230011818	0.8557296136960434	0.6432184617134233	-0.2189189140575928	-0.1530350447458532	-0.5572166111215627	0.781093610186452	0.7810936101864528	-0.023151002000675	0.174529626462146	0.2612358010847343	0.1320395425813432	0.4483525655114012	0.2585347096830118	0.4485696519261898	-2.021988675058837	0.01014280236709941	-0.2365940382833071	0.9162459884080847	-2.018728218670781	-2.018728218670764	0.4717896747852673	0.0001526666922407003	-0.5624171043387132	-0.1973934029560944	-0.09665982862916191	-0.005887729781428572	0.01744829364984031	-0.2821704603011083	0.03535319468128666	-0.01015382677127832	0.1565280787376044	-17.41528102926492	-29.1120189363755	-8.032748095642273	0.01849668721180981	-3.735582615278388	-595.1019565439526	59.46107213505773	-0.2088808968616663	0.3861242494664254	-0.977550600786155	0.3678911048373669	-0.2345815980862404	-0.5260395499470867	1.143887101679669	0.06570070743549021	0.06570070743549072	0.3036134103482317	-0.03897641547375073	-0.2077637889264869	-0.2202859808381767	1.366909439465038e-07	2.956238537530516e-08	-1.650448174987485e-06	2.841826066559058e-07	1.460288684747141e-07	2.314048031792032e-07	-1.023176499215013e-06
